<?xml version="1.0" encoding="UTF-8"?>
<svg id="Capa_2" data-name="Capa 2" xmlns="http://www.w3.org/2000/svg" viewBox="0 0 360.69 132.31">
  <defs>
    <style>
      .cls-1 {
        fill: #edb518;
      }
    </style>
  </defs>
  <g id="Objects">
    <g>
      <path d="M0,130.01V2.11H93.77V29.91H32.98v21.29h59.45v28H32.98v23.01h60.79v27.8H0Z"/>
      <path class="cls-1" d="M175.65,0c28,0,45.25,13.81,54.65,29.72l-27.61,14.57c-5.18-8.44-14.96-15.15-27.04-15.15-20.9,0-35.67,16.11-35.67,37.01s14.77,37.01,35.67,37.01c9.97,0,18.98-3.45,24.16-7.67v-10.74h-29.34v-27.42h61.75v50.05c-13.81,15.15-32.41,24.93-56.57,24.93-38.16,0-69.22-25.5-69.22-66.16S137.49,0,175.65,0Z"/>
      <path d="M322.91,130.01l-21.48-43.34h-16.88v43.34h-32.98V2.11h64.05c28.38,0,44.49,18.79,44.49,42.57,0,22.24-13.62,34.13-25.5,38.35l26.08,46.98h-37.78Zm-12.27-100.1h-26.08v28.76h26.08c8.63,0,15.92-5.56,15.92-14.38s-7.29-14.38-15.92-14.38Z"/>
    </g>
  </g>
</svg>